<svg width="136" height="136" viewBox="0 0 136 136" fill="none" xmlns="http://www.w3.org/2000/svg">
<rect x="0.5" y="0.5" width="135" height="135" rx="67.5" stroke="#DFDFDF" stroke-linejoin="round" stroke-dasharray="2 4 6 8"/>
<path d="M54.22 55.376C52.8973 55.376 51.6387 55.12 50.444 54.608C49.2707 54.096 48.3107 53.328 47.564 52.304C46.8173 51.2587 46.444 49.9573 46.444 48.4C46.444 47.5893 46.6253 46.6507 46.988 45.584C47.3507 44.496 47.8093 43.4293 48.364 42.384C48.9187 41.3173 49.4947 40.4107 50.092 39.664C50.7533 38.832 51.532 38.0427 52.428 37.296C53.3453 36.5493 54.316 35.888 55.34 35.312C56.364 34.736 57.3987 34.288 58.444 33.968C59.4893 33.6267 60.4813 33.456 61.42 33.456C62.572 33.456 63.6813 33.68 64.748 34.128C65.836 34.576 66.8067 35.1947 67.66 35.984C68.5133 36.7733 69.1853 37.6907 69.676 38.736C70.188 39.76 70.444 40.848 70.444 42C70.444 43.1093 70.1987 44.208 69.708 45.296C69.2173 46.384 68.5667 47.4187 67.756 48.4C66.9667 49.36 66.0813 50.2453 65.1 51.056C63.5427 52.336 61.8147 53.3707 59.916 54.16C58.0387 54.9707 56.1507 55.376 54.252 55.376H54.22ZM54.028 54.32C55.8413 54.32 57.6227 53.9467 59.372 53.2C61.1427 52.432 62.7427 51.4613 64.172 50.288C65.1107 49.52 65.964 48.6773 66.732 47.76C67.5 46.8213 68.1187 45.8507 68.588 44.848C69.0573 43.824 69.292 42.8213 69.292 41.84C69.292 40.88 69.068 39.9627 68.62 39.088C68.1933 38.2133 67.6067 37.4347 66.86 36.752C66.1347 36.0693 65.3027 35.536 64.364 35.152C63.4253 34.7467 62.4547 34.544 61.452 34.544C60.556 34.544 59.6067 34.704 58.604 35.024C57.6227 35.344 56.652 35.7813 55.692 36.336C54.732 36.8693 53.8253 37.4987 52.972 38.224C52.14 38.928 51.4253 39.664 50.828 40.432C50.2733 41.1573 49.74 42.0213 49.228 43.024C48.716 44.0267 48.3 45.0293 47.98 46.032C47.6813 47.0347 47.532 47.9093 47.532 48.656C47.532 49.8507 47.8093 50.8747 48.364 51.728C48.94 52.56 49.7187 53.2 50.7 53.648C51.6813 54.096 52.7907 54.32 54.028 54.32ZM71.3173 54.576C70.9759 54.576 70.8053 54.4053 70.8053 54.064C70.8053 53.616 70.9653 52.912 71.2853 51.952C71.6053 50.9707 72.0213 49.8507 72.5333 48.592C73.0666 47.312 73.6319 46 74.2293 44.656C74.5706 43.9093 74.9226 43.184 75.2853 42.48C75.6479 41.7547 75.9893 41.1253 76.3093 40.592C79.4666 35.2587 81.4293 32.592 82.1973 32.592C82.4959 32.592 82.6453 32.7413 82.6453 33.04C82.6453 33.232 82.4959 33.5947 82.1973 34.128C81.9199 34.64 81.5466 35.248 81.0773 35.952C80.6293 36.6347 80.1386 37.328 79.6053 38.032C79.0933 38.736 78.6026 39.3867 78.1333 39.984C77.6853 40.56 77.3226 40.9973 77.0453 41.296C76.8106 41.5733 76.5439 41.9787 76.2453 42.512C75.9679 43.0453 75.6906 43.6 75.4133 44.176C75.1359 44.7307 74.9119 45.2213 74.7413 45.648L73.5253 48.656C73.8453 48.2293 74.2613 47.7493 74.7733 47.216C75.9893 45.872 77.2479 44.8587 78.5493 44.176C79.8719 43.472 80.9813 43.12 81.8773 43.12C82.3679 43.12 82.7626 43.2693 83.0613 43.568C83.3599 43.8667 83.5093 44.2293 83.5093 44.656C83.5093 45.488 82.9653 46.8853 81.8773 48.848C80.7893 50.7893 80.2453 51.984 80.2453 52.432C80.2453 52.6667 80.3733 52.784 80.6293 52.784C81.2266 52.784 81.8773 52.5707 82.5813 52.144C83.2853 51.696 84.0106 51.1307 84.7573 50.448C85.5039 49.7653 86.2293 49.0827 86.9333 48.4C87.0186 48.3147 87.1466 48.272 87.3173 48.272C87.6373 48.272 87.7973 48.4 87.7973 48.656C87.7973 48.8907 87.6479 49.1573 87.3493 49.456C85.9199 50.8853 84.6933 51.952 83.6693 52.656C82.6453 53.36 81.5679 53.712 80.4373 53.712C79.5839 53.712 79.1573 53.3173 79.1573 52.528C79.1573 52.2293 79.2106 51.9413 79.3173 51.664C79.4239 51.3867 79.5946 51.0133 79.8293 50.544L81.3013 47.632C81.6639 46.9067 81.9306 46.2987 82.1013 45.808C82.2719 45.3173 82.3573 44.944 82.3573 44.688C82.3573 44.3253 82.1333 44.144 81.6853 44.144C80.8959 44.144 79.9679 44.464 78.9013 45.104C77.8559 45.7227 76.7359 46.6613 75.5413 47.92C74.8586 48.6453 74.2399 49.4133 73.6853 50.224C73.1519 51.0347 72.7253 51.9093 72.4053 52.848L72.0213 53.968C71.8719 54.3733 71.6373 54.576 71.3173 54.576Z" fill="white"/>
<path d="M49.884 79.256C49.2867 79.256 48.828 79.0853 48.508 78.744C48.188 78.4027 48.028 77.9333 48.028 77.336V58.104C48.028 57.4853 48.1987 57.016 48.54 56.696C48.8813 56.3547 49.3507 56.184 49.948 56.184C50.4813 56.184 50.8973 56.2907 51.196 56.504C51.516 56.696 51.804 57.0373 52.06 57.528L59.964 72.152H58.94L66.844 57.528C67.1 57.0373 67.3773 56.696 67.676 56.504C67.9747 56.2907 68.3907 56.184 68.924 56.184C69.5213 56.184 69.98 56.3547 70.3 56.696C70.62 57.016 70.78 57.4853 70.78 58.104V77.336C70.78 77.9333 70.62 78.4027 70.3 78.744C70.0013 79.0853 69.5427 79.256 68.924 79.256C68.3267 79.256 67.868 79.0853 67.548 78.744C67.228 78.4027 67.068 77.9333 67.068 77.336V62.52H67.772L61.052 74.776C60.8387 75.1387 60.6147 75.4053 60.38 75.576C60.1453 75.7467 59.8253 75.832 59.42 75.832C59.0147 75.832 58.684 75.7467 58.428 75.576C58.172 75.384 57.948 75.1173 57.756 74.776L50.972 62.488H51.74V77.336C51.74 77.9333 51.58 78.4027 51.26 78.744C50.9613 79.0853 50.5027 79.256 49.884 79.256ZM79.3293 85.016C78.8599 85.016 78.4759 84.888 78.1773 84.632C77.8786 84.3973 77.6973 84.0773 77.6333 83.672C77.5906 83.2667 77.6653 82.84 77.8573 82.392L80.0333 77.56V79.224L74.2093 65.752C74.0173 65.2827 73.9533 64.8453 74.0173 64.44C74.0813 64.0347 74.2733 63.7147 74.5933 63.48C74.9346 63.224 75.3933 63.096 75.9693 63.096C76.4599 63.096 76.8546 63.2133 77.1533 63.448C77.4519 63.6613 77.7186 64.0773 77.9533 64.696L82.2733 75.48H81.3133L85.7293 64.664C85.9639 64.0667 86.2413 63.6613 86.5613 63.448C86.8813 63.2133 87.3079 63.096 87.8413 63.096C88.3106 63.096 88.6839 63.224 88.9613 63.48C89.2386 63.7147 89.4093 64.0347 89.4733 64.44C89.5373 64.824 89.4626 65.2507 89.2493 65.72L81.4733 83.48C81.1959 84.0773 80.8973 84.4827 80.5773 84.696C80.2573 84.9093 79.8413 85.016 79.3293 85.016Z" fill="white"/>
<path d="M34.012 102.256C33.3507 102.256 32.8387 102.075 32.476 101.712C32.1347 101.328 31.964 100.805 31.964 100.144V81.52C31.964 80.8373 32.1453 80.3253 32.508 79.984C32.8707 79.6213 33.3827 79.44 34.044 79.44H41.756C44.2307 79.44 46.14 80.0587 47.484 81.296C48.828 82.5333 49.5 84.2613 49.5 86.48C49.5 88.6987 48.828 90.4373 47.484 91.696C46.14 92.9333 44.2307 93.552 41.756 93.552H36.06V100.144C36.06 100.805 35.8893 101.328 35.548 101.712C35.2067 102.075 34.6947 102.256 34.012 102.256ZM36.06 90.32H41.116C42.5667 90.32 43.6653 90 44.412 89.36C45.1587 88.6987 45.532 87.7387 45.532 86.48C45.532 85.2213 45.1587 84.272 44.412 83.632C43.6653 82.992 42.5667 82.672 41.116 82.672H36.06V90.32ZM54.439 102.224C53.799 102.224 53.3083 102.032 52.967 101.648C52.6257 101.264 52.455 100.731 52.455 100.048V88.304C52.455 87.6 52.6257 87.0667 52.967 86.704C53.3083 86.32 53.799 86.128 54.439 86.128C55.079 86.128 55.5697 86.32 55.911 86.704C56.2737 87.0667 56.455 87.6 56.455 88.304V100.048C56.455 100.731 56.2843 101.264 55.943 101.648C55.6017 102.032 55.1003 102.224 54.439 102.224ZM54.439 83.152C53.6923 83.152 53.1057 82.9707 52.679 82.608C52.2737 82.224 52.071 81.7013 52.071 81.04C52.071 80.3573 52.2737 79.8347 52.679 79.472C53.1057 79.1093 53.6923 78.928 54.439 78.928C55.207 78.928 55.7937 79.1093 56.199 79.472C56.6043 79.8347 56.807 80.3573 56.807 81.04C56.807 81.7013 56.6043 82.224 56.199 82.608C55.7937 82.9707 55.207 83.152 54.439 83.152ZM61.5713 102C61.1659 102 60.8246 101.904 60.5473 101.712C60.2913 101.499 60.1206 101.232 60.0353 100.912C59.9499 100.592 59.9499 100.251 60.0353 99.888C60.1419 99.504 60.3446 99.1413 60.6432 98.8L68.9313 88.4V89.36H61.3793C60.8886 89.36 60.5046 89.232 60.2273 88.976C59.9713 88.6987 59.8433 88.3253 59.8433 87.856C59.8433 87.3653 59.9713 86.992 60.2273 86.736C60.5046 86.48 60.8886 86.352 61.3793 86.352H70.8513C71.3206 86.352 71.7046 86.4587 72.0033 86.672C72.3019 86.864 72.4939 87.12 72.5793 87.44C72.6859 87.76 72.6966 88.1013 72.6113 88.464C72.5259 88.8267 72.3339 89.168 72.0353 89.488L63.5873 100.048V98.992H71.5873C72.6113 98.992 73.1233 99.4933 73.1233 100.496C73.1233 100.965 72.9846 101.339 72.7073 101.616C72.4513 101.872 72.0779 102 71.5873 102H61.5713ZM76.7275 102C76.3222 102 75.9808 101.904 75.7035 101.712C75.4475 101.499 75.2768 101.232 75.1915 100.912C75.1062 100.592 75.1062 100.251 75.1915 99.888C75.2982 99.504 75.5008 99.1413 75.7995 98.8L84.0875 88.4V89.36H76.5355C76.0448 89.36 75.6608 89.232 75.3835 88.976C75.1275 88.6987 74.9995 88.3253 74.9995 87.856C74.9995 87.3653 75.1275 86.992 75.3835 86.736C75.6608 86.48 76.0448 86.352 76.5355 86.352H86.0075C86.4768 86.352 86.8608 86.4587 87.1595 86.672C87.4582 86.864 87.6502 87.12 87.7355 87.44C87.8422 87.76 87.8528 88.1013 87.7675 88.464C87.6822 88.8267 87.4902 89.168 87.1915 89.488L78.7435 100.048V98.992H86.7435C87.7675 98.992 88.2795 99.4933 88.2795 100.496C88.2795 100.965 88.1408 101.339 87.8635 101.616C87.6075 101.872 87.2342 102 86.7435 102H76.7275ZM95.9195 102.32C94.7888 102.32 93.7755 102.107 92.8795 101.68C92.0048 101.232 91.3115 100.635 90.7995 99.888C90.3088 99.1413 90.0635 98.2987 90.0635 97.36C90.0635 96.208 90.3622 95.3013 90.9595 94.64C91.5568 93.9573 92.5275 93.4667 93.8715 93.168C95.2155 92.8693 97.0182 92.72 99.2795 92.72H100.88V95.024H99.3115C97.9888 95.024 96.9328 95.088 96.1435 95.216C95.3542 95.344 94.7888 95.568 94.4475 95.888C94.1275 96.1867 93.9675 96.6133 93.9675 97.168C93.9675 97.872 94.2128 98.448 94.7035 98.896C95.1942 99.344 95.8768 99.568 96.7515 99.568C97.4555 99.568 98.0742 99.408 98.6075 99.088C99.1622 98.7467 99.5995 98.288 99.9195 97.712C100.24 97.136 100.4 96.4747 100.4 95.728V92.048C100.4 90.9813 100.165 90.2133 99.6955 89.744C99.2262 89.2747 98.4368 89.04 97.3275 89.04C96.7088 89.04 96.0368 89.1147 95.3115 89.264C94.6075 89.4133 93.8608 89.6693 93.0715 90.032C92.6662 90.224 92.3035 90.2773 91.9835 90.192C91.6848 90.1067 91.4502 89.936 91.2795 89.68C91.1088 89.4027 91.0235 89.104 91.0235 88.784C91.0235 88.464 91.1088 88.1547 91.2795 87.856C91.4502 87.536 91.7382 87.3013 92.1435 87.152C93.1248 86.7467 94.0635 86.4587 94.9595 86.288C95.8768 86.1173 96.7088 86.032 97.4555 86.032C98.9915 86.032 100.25 86.2667 101.232 86.736C102.234 87.2053 102.981 87.92 103.472 88.88C103.962 89.8187 104.208 91.0347 104.208 92.528V100.208C104.208 100.869 104.048 101.381 103.728 101.744C103.408 102.085 102.949 102.256 102.352 102.256C101.754 102.256 101.285 102.085 100.944 101.744C100.624 101.381 100.464 100.869 100.464 100.208V98.672H100.72C100.57 99.4187 100.272 100.069 99.8235 100.624C99.3968 101.157 98.8528 101.573 98.1915 101.872C97.5302 102.171 96.7728 102.32 95.9195 102.32Z" fill="white"/>
</svg>
